<?xml version="1.0" encoding="utf-8"?>
<!-- Generator: Adobe Illustrator 25.3.1, SVG Export Plug-In . SVG Version: 6.00 Build 0)  -->
<svg version="1.1" xmlns="http://www.w3.org/2000/svg" xmlns:xlink="http://www.w3.org/1999/xlink" x="0px" y="0px"
	 viewBox="0 0 58.69 57.45" style="enable-background:new 0 0 58.69 57.45;" xml:space="preserve">
<style type="text/css">
	.st0{fill:#F9C02D;}
	.st1{fill:#F8B218;}
	.st2{fill:#FFFFFF;stroke:#000000;stroke-linecap:round;stroke-miterlimit:10;}
	.st3{fill:none;stroke:#000000;stroke-linecap:round;stroke-miterlimit:10;}
	.st4{fill:none;stroke:#000000;stroke-miterlimit:10;}
	.st5{fill:#FFFFFF;}
	.st6{fill:#020202;}
	.st7{fill:none;stroke:#000000;stroke-width:2;stroke-linecap:round;stroke-miterlimit:10;}
	.st8{fill:none;stroke:#000000;stroke-width:2;stroke-linecap:round;stroke-linejoin:round;stroke-miterlimit:10;}
</style>
<g id="Layer_2">
</g>
<g id="Layer_1">
</g>
<g id="Layer_3">
	<g>
		<line class="st5" x1="40.75" y1="38.31" x2="24.92" y2="22.47"/>
		<path d="M40.75,38.81c-0.13,0-0.26-0.05-0.35-0.15L24.56,22.82c-0.2-0.2-0.2-0.51,0-0.71s0.51-0.2,0.71,0l15.84,15.84
			c0.2,0.2,0.2,0.51,0,0.71C41.01,38.76,40.88,38.81,40.75,38.81z"/>
	</g>
	<g>
		<path d="M28.44,37.6c-0.22,0-0.42-0.15-0.48-0.37l-4.29-16l16,4.29c0.27,0.07,0.42,0.35,0.35,0.61c-0.07,0.27-0.35,0.42-0.61,0.35
			l-14.33-3.84l3.84,14.33c0.07,0.27-0.09,0.54-0.35,0.61C28.53,37.59,28.48,37.6,28.44,37.6z"/>
	</g>
</g>
</svg>
