<?xml version="1.0" encoding="utf-8"?>
<!-- Generator: Adobe Illustrator 25.3.1, SVG Export Plug-In . SVG Version: 6.00 Build 0)  -->
<svg version="1.1" xmlns="http://www.w3.org/2000/svg" xmlns:xlink="http://www.w3.org/1999/xlink" x="0px" y="0px"
	 viewBox="0 0 58.69 57.45" style="enable-background:new 0 0 58.69 57.45;" xml:space="preserve">
<style type="text/css">
	.st0{fill:#F9C02D;}
	.st1{fill:#F8B218;}
	.st2{fill:#FFFFFF;stroke:#000000;stroke-linecap:round;stroke-miterlimit:10;}
	.st3{fill:none;stroke:#000000;stroke-linecap:round;stroke-miterlimit:10;}
	.st4{fill:none;stroke:#000000;stroke-miterlimit:10;}
	.st5{fill:#FFFFFF;}
	.st6{fill:#020202;}
	.st7{fill:none;stroke:#000000;stroke-width:2;stroke-linecap:round;stroke-miterlimit:10;}
	.st8{fill:none;stroke:#000000;stroke-width:2;stroke-linecap:round;stroke-linejoin:round;stroke-miterlimit:10;}
</style>
<g id="Layer_2">
</g>
<g id="Layer_1">
</g>
<g id="Layer_3">
	<g>
		<circle class="st1" cx="30.21" cy="29.66" r="9.74"/>
	</g>
	<g>
		<path d="M27.97,16.34c-0.28,0-0.5-0.22-0.5-0.5V7.13c0-0.28,0.22-0.5,0.5-0.5s0.5,0.22,0.5,0.5v8.71
			C28.47,16.11,28.25,16.34,27.97,16.34z"/>
	</g>
	<g>
		<path d="M21.06,18.19c-0.17,0-0.34-0.09-0.43-0.25l-4.35-7.54c-0.14-0.24-0.06-0.54,0.18-0.68C16.69,9.57,17,9.66,17.14,9.9
			l4.35,7.54c0.14,0.24,0.06,0.54-0.18,0.68C21.23,18.17,21.14,18.19,21.06,18.19z"/>
	</g>
	<g>
		<path d="M16,23.25c-0.08,0-0.17-0.02-0.25-0.07l-7.54-4.35c-0.24-0.14-0.32-0.44-0.18-0.68c0.14-0.24,0.44-0.32,0.68-0.18
			l7.54,4.35c0.24,0.14,0.32,0.44,0.18,0.68C16.34,23.16,16.17,23.25,16,23.25z"/>
	</g>
	<g>
		<path d="M27.97,39.9c-5.65,0-10.24-4.59-10.24-10.24s4.59-10.24,10.24-10.24s10.24,4.59,10.24,10.24S33.62,39.9,27.97,39.9z
			 M27.97,20.42c-5.09,0-9.24,4.14-9.24,9.24c0,5.09,4.14,9.24,9.24,9.24s9.24-4.14,9.24-9.24C37.21,24.57,33.07,20.42,27.97,20.42z
			"/>
	</g>
	<g>
		<path d="M14.15,30.16H5.44c-0.28,0-0.5-0.22-0.5-0.5s0.22-0.5,0.5-0.5h8.71c0.28,0,0.5,0.22,0.5,0.5S14.42,30.16,14.15,30.16z"/>
	</g>
	<g>
		<path d="M8.46,41.43c-0.17,0-0.34-0.09-0.43-0.25c-0.14-0.24-0.06-0.54,0.18-0.68l7.54-4.35c0.24-0.14,0.54-0.06,0.68,0.18
			c0.14,0.24,0.06,0.54-0.18,0.68l-7.54,4.35C8.63,41.41,8.54,41.43,8.46,41.43z"/>
	</g>
	<g>
		<path d="M16.7,49.68c-0.08,0-0.17-0.02-0.25-0.07c-0.24-0.14-0.32-0.44-0.18-0.68l4.35-7.54c0.14-0.24,0.44-0.32,0.68-0.18
			c0.24,0.14,0.32,0.44,0.18,0.68l-4.35,7.54C17.04,49.59,16.88,49.68,16.7,49.68z"/>
	</g>
	<g>
		<path d="M27.97,52.7c-0.28,0-0.5-0.22-0.5-0.5v-8.71c0-0.28,0.22-0.5,0.5-0.5s0.5,0.22,0.5,0.5v8.71
			C28.47,52.47,28.25,52.7,27.97,52.7z"/>
	</g>
	<g>
		<path d="M39.24,49.68c-0.17,0-0.34-0.09-0.43-0.25l-4.35-7.54c-0.14-0.24-0.06-0.54,0.18-0.68c0.24-0.14,0.54-0.06,0.68,0.18
			l4.35,7.54c0.14,0.24,0.06,0.54-0.18,0.68C39.41,49.66,39.32,49.68,39.24,49.68z"/>
	</g>
	<g>
		<path d="M47.49,41.43c-0.08,0-0.17-0.02-0.25-0.07l-7.54-4.35c-0.24-0.14-0.32-0.44-0.18-0.68s0.44-0.32,0.68-0.18l7.54,4.35
			c0.24,0.14,0.32,0.44,0.18,0.68C47.83,41.34,47.66,41.43,47.49,41.43z"/>
	</g>
	<g>
		<path d="M50.51,30.16H41.8c-0.28,0-0.5-0.22-0.5-0.5s0.22-0.5,0.5-0.5h8.71c0.28,0,0.5,0.22,0.5,0.5S50.78,30.16,50.51,30.16z"/>
	</g>
	<g>
		<path d="M39.94,23.25c-0.17,0-0.34-0.09-0.43-0.25c-0.14-0.24-0.06-0.54,0.18-0.68l7.54-4.35c0.24-0.14,0.54-0.06,0.68,0.18
			c0.14,0.24,0.06,0.54-0.18,0.68l-7.54,4.35C40.12,23.23,40.03,23.25,39.94,23.25z"/>
	</g>
	<g>
		<path d="M34.88,18.19c-0.08,0-0.17-0.02-0.25-0.07c-0.24-0.14-0.32-0.44-0.18-0.68l4.35-7.54c0.14-0.24,0.44-0.32,0.68-0.18
			c0.24,0.14,0.32,0.44,0.18,0.68l-4.35,7.54C35.22,18.1,35.06,18.19,34.88,18.19z"/>
	</g>
</g>
</svg>
