<?xml version="1.0" encoding="utf-8"?>
<!-- Generator: Adobe Illustrator 25.3.1, SVG Export Plug-In . SVG Version: 6.00 Build 0)  -->
<svg version="1.1" xmlns="http://www.w3.org/2000/svg" xmlns:xlink="http://www.w3.org/1999/xlink" x="0px" y="0px"
	 viewBox="0 0 58.69 57.45" style="enable-background:new 0 0 58.69 57.45;" xml:space="preserve">
<style type="text/css">
	.st0{fill:#F9C02D;}
	.st1{fill:#F8B218;}
	.st2{fill:#FFFFFF;stroke:#000000;stroke-linecap:round;stroke-miterlimit:10;}
	.st3{fill:none;stroke:#000000;stroke-linecap:round;stroke-miterlimit:10;}
	.st4{fill:none;stroke:#000000;stroke-miterlimit:10;}
	.st5{fill:#FFFFFF;}
	.st6{fill:#020202;}
	.st7{fill:none;stroke:#000000;stroke-width:2;stroke-linecap:round;stroke-miterlimit:10;}
	.st8{fill:none;stroke:#000000;stroke-width:2;stroke-linecap:round;stroke-linejoin:round;stroke-miterlimit:10;}
</style>
<g id="Layer_2">
</g>
<g id="Layer_1">
</g>
<g id="Layer_3">
	<g>
		<path class="st1" d="M19.3,30.66c-0.03-0.33-0.05-0.66-0.05-1c0-5.38,4.36-9.74,9.74-9.74s9.74,4.36,9.74,9.74
			c0,0.44-0.03,0.87-0.08,1.29"/>
	</g>
	<g>
		<path d="M30.08,16.34c-0.28,0-0.5-0.22-0.5-0.5V7.13c0-0.28,0.22-0.5,0.5-0.5s0.5,0.22,0.5,0.5v8.71
			C30.58,16.11,30.36,16.34,30.08,16.34z"/>
	</g>
	<g>
		<path d="M23.17,18.19c-0.17,0-0.34-0.09-0.43-0.25l-4.35-7.54c-0.14-0.24-0.06-0.54,0.18-0.68c0.24-0.14,0.54-0.06,0.68,0.18
			l4.35,7.54c0.14,0.24,0.06,0.54-0.18,0.68C23.34,18.17,23.26,18.19,23.17,18.19z"/>
	</g>
	<g>
		<path d="M18.11,23.25c-0.08,0-0.17-0.02-0.25-0.07l-7.54-4.35c-0.24-0.14-0.32-0.44-0.18-0.68c0.14-0.24,0.44-0.32,0.68-0.18
			l7.54,4.35c0.24,0.14,0.32,0.44,0.18,0.68C18.45,23.16,18.28,23.25,18.11,23.25z"/>
	</g>
	<g>
		<path d="M16.26,30.16H7.55c-0.28,0-0.5-0.22-0.5-0.5s0.22-0.5,0.5-0.5h8.71c0.28,0,0.5,0.22,0.5,0.5S16.53,30.16,16.26,30.16z"/>
	</g>
	<g>
		<path d="M52.62,30.16h-8.71c-0.28,0-0.5-0.22-0.5-0.5s0.22-0.5,0.5-0.5h8.71c0.28,0,0.5,0.22,0.5,0.5S52.89,30.16,52.62,30.16z"/>
	</g>
	<g>
		<path d="M42.06,23.25c-0.17,0-0.34-0.09-0.43-0.25c-0.14-0.24-0.06-0.54,0.18-0.68l7.54-4.35c0.24-0.14,0.54-0.06,0.68,0.18
			c0.14,0.24,0.06,0.54-0.18,0.68l-7.54,4.35C42.23,23.23,42.14,23.25,42.06,23.25z"/>
	</g>
	<g>
		<path d="M36.99,18.19c-0.08,0-0.17-0.02-0.25-0.07c-0.24-0.14-0.32-0.44-0.18-0.68l4.35-7.54c0.14-0.24,0.44-0.32,0.68-0.18
			c0.24,0.14,0.32,0.44,0.18,0.68l-4.35,7.54C37.34,18.1,37.17,18.19,36.99,18.19z"/>
	</g>
	<g>
		<g>
			<path d="M53.67,39.9c-0.13,0-0.26-0.05-0.36-0.15c-6.14-6.37-14.39-9.88-23.22-9.88c-8.83,0-17.07,3.51-23.22,9.88
				c-0.19,0.2-0.51,0.2-0.71,0.01c-0.2-0.19-0.2-0.51-0.01-0.71c6.34-6.56,14.84-10.18,23.94-10.18c9.11,0,17.61,3.62,23.94,10.18
				c0.19,0.2,0.19,0.52-0.01,0.71C53.92,39.85,53.79,39.9,53.67,39.9z"/>
		</g>
	</g>
	<g>
		<path d="M40.23,31.02l-0.99-0.13c0.05-0.4,0.08-0.81,0.08-1.22c0-5.09-4.14-9.24-9.24-9.24s-9.24,4.14-9.24,9.24
			c0,0.32,0.02,0.63,0.05,0.94l-1,0.1c-0.03-0.34-0.05-0.69-0.05-1.05c0-5.65,4.59-10.24,10.24-10.24s10.24,4.59,10.24,10.24
			C40.32,30.12,40.29,30.57,40.23,31.02z"/>
	</g>
</g>
</svg>
