<?xml version="1.0" encoding="utf-8"?>
<!-- Generator: Adobe Illustrator 25.3.1, SVG Export Plug-In . SVG Version: 6.00 Build 0)  -->
<svg version="1.1" xmlns="http://www.w3.org/2000/svg" xmlns:xlink="http://www.w3.org/1999/xlink" x="0px" y="0px"
	 viewBox="0 0 58.69 57.45" style="enable-background:new 0 0 58.69 57.45;" xml:space="preserve">
<style type="text/css">
	.st0{fill:#F9C02D;}
	.st1{fill:#F8B218;}
	.st2{fill:#FFFFFF;stroke:#000000;stroke-linecap:round;stroke-miterlimit:10;}
	.st3{fill:none;stroke:#000000;stroke-linecap:round;stroke-miterlimit:10;}
	.st4{fill:none;stroke:#000000;stroke-miterlimit:10;}
	.st5{fill:#FFFFFF;}
	.st6{fill:#020202;}
	.st7{fill:none;stroke:#000000;stroke-width:2;stroke-linecap:round;stroke-miterlimit:10;}
	.st8{fill:none;stroke:#000000;stroke-width:2;stroke-linecap:round;stroke-linejoin:round;stroke-miterlimit:10;}
</style>
<g id="Layer_2">
</g>
<g id="Layer_1">
</g>
<g id="Layer_3">
	<g>
		<path d="M28.36,41.78c-0.28,0-0.5-0.22-0.5-0.5v-22.4c0-0.28,0.22-0.5,0.5-0.5s0.5,0.22,0.5,0.5v22.4
			C28.86,41.56,28.64,41.78,28.36,41.78z"/>
	</g>
	<g>
		<path d="M36.21,32.22c-0.17,0-0.34-0.09-0.43-0.25l-7.42-12.85l-7.42,12.85c-0.14,0.24-0.44,0.32-0.68,0.18
			c-0.24-0.14-0.32-0.44-0.18-0.68l8.28-14.35l8.28,14.35c0.14,0.24,0.06,0.54-0.18,0.68C36.39,32.2,36.3,32.22,36.21,32.22z"/>
	</g>
</g>
</svg>
