<?xml version="1.0" encoding="utf-8"?>
<!-- Generator: Adobe Illustrator 25.3.1, SVG Export Plug-In . SVG Version: 6.00 Build 0)  -->
<svg version="1.1" xmlns="http://www.w3.org/2000/svg" xmlns:xlink="http://www.w3.org/1999/xlink" x="0px" y="0px"
	 viewBox="0 0 58.69 57.45" style="enable-background:new 0 0 58.69 57.45;" xml:space="preserve">
<style type="text/css">
	.st0{fill:#F9C02D;}
	.st1{fill:#F8B218;}
	.st2{fill:#FFFFFF;stroke:#000000;stroke-linecap:round;stroke-miterlimit:10;}
	.st3{fill:none;stroke:#000000;stroke-linecap:round;stroke-miterlimit:10;}
	.st4{fill:none;stroke:#000000;stroke-miterlimit:10;}
	.st5{fill:#FFFFFF;}
	.st6{fill:#020202;}
	.st7{fill:none;stroke:#000000;stroke-width:2;stroke-linecap:round;stroke-miterlimit:10;}
	.st8{fill:none;stroke:#000000;stroke-width:2;stroke-linecap:round;stroke-linejoin:round;stroke-miterlimit:10;}
</style>
<g id="Layer_2">
</g>
<g id="Layer_1">
</g>
<g id="Layer_3">
	<g>
		<path d="M27.97,18.14c-0.28,0-0.5-0.22-0.5-0.5V8.93c0-0.28,0.22-0.5,0.5-0.5s0.5,0.22,0.5,0.5v8.71
			C28.47,17.92,28.25,18.14,27.97,18.14z"/>
	</g>
	<g>
		<path d="M21.06,19.99c-0.17,0-0.34-0.09-0.43-0.25l-4.35-7.54c-0.14-0.24-0.06-0.54,0.18-0.68c0.24-0.14,0.54-0.06,0.68,0.18
			l4.35,7.54c0.14,0.24,0.06,0.54-0.18,0.68C21.23,19.97,21.14,19.99,21.06,19.99z"/>
	</g>
	<g>
		<path d="M16,25.05c-0.08,0-0.17-0.02-0.25-0.07l-7.54-4.35c-0.24-0.14-0.32-0.44-0.18-0.68c0.14-0.24,0.44-0.32,0.68-0.18
			l7.54,4.35c0.24,0.14,0.32,0.44,0.18,0.68C16.34,24.96,16.17,25.05,16,25.05z"/>
	</g>
	<g>
		<path d="M27.97,41.7c-5.65,0-10.24-4.59-10.24-10.24s4.59-10.24,10.24-10.24s10.24,4.59,10.24,10.24S33.62,41.7,27.97,41.7z
			 M27.97,22.23c-5.09,0-9.24,4.14-9.24,9.24c0,5.09,4.14,9.24,9.24,9.24s9.24-4.14,9.24-9.24C37.21,26.37,33.07,22.23,27.97,22.23z
			"/>
	</g>
	<g>
		<path d="M14.15,31.96H5.44c-0.28,0-0.5-0.22-0.5-0.5s0.22-0.5,0.5-0.5h8.71c0.28,0,0.5,0.22,0.5,0.5S14.42,31.96,14.15,31.96z"/>
	</g>
	<g>
		<path d="M8.46,43.23c-0.17,0-0.34-0.09-0.43-0.25c-0.14-0.24-0.06-0.54,0.18-0.68l7.54-4.35c0.24-0.14,0.54-0.06,0.68,0.18
			c0.14,0.24,0.06,0.54-0.18,0.68l-7.54,4.35C8.63,43.21,8.54,43.23,8.46,43.23z"/>
	</g>
	<g>
		<path d="M16.7,51.48c-0.08,0-0.17-0.02-0.25-0.07c-0.24-0.14-0.32-0.44-0.18-0.68l4.35-7.54c0.14-0.24,0.44-0.32,0.68-0.18
			c0.24,0.14,0.32,0.44,0.18,0.68l-4.35,7.54C17.04,51.39,16.88,51.48,16.7,51.48z"/>
	</g>
	<g>
		<path d="M27.97,54.5c-0.28,0-0.5-0.22-0.5-0.5v-8.71c0-0.28,0.22-0.5,0.5-0.5s0.5,0.22,0.5,0.5V54
			C28.47,54.28,28.25,54.5,27.97,54.5z"/>
	</g>
	<g>
		<path d="M39.24,51.48c-0.17,0-0.34-0.09-0.43-0.25l-4.35-7.54c-0.14-0.24-0.06-0.54,0.18-0.68c0.24-0.14,0.54-0.06,0.68,0.18
			l4.35,7.54c0.14,0.24,0.06,0.54-0.18,0.68C39.41,51.46,39.32,51.48,39.24,51.48z"/>
	</g>
	<g>
		<path d="M47.49,43.23c-0.08,0-0.17-0.02-0.25-0.07l-7.54-4.35c-0.24-0.14-0.32-0.44-0.18-0.68s0.44-0.32,0.68-0.18l7.54,4.35
			c0.24,0.14,0.32,0.44,0.18,0.68C47.83,43.14,47.66,43.23,47.49,43.23z"/>
	</g>
	<g>
		<path d="M50.51,31.96H41.8c-0.28,0-0.5-0.22-0.5-0.5s0.22-0.5,0.5-0.5h8.71c0.28,0,0.5,0.22,0.5,0.5S50.78,31.96,50.51,31.96z"/>
	</g>
	<g>
		<path d="M39.94,25.05c-0.17,0-0.34-0.09-0.43-0.25c-0.14-0.24-0.06-0.54,0.18-0.68l7.54-4.35c0.24-0.14,0.54-0.06,0.68,0.18
			c0.14,0.24,0.06,0.54-0.18,0.68l-7.54,4.35C40.12,25.03,40.03,25.05,39.94,25.05z"/>
	</g>
	<g>
		<path d="M34.88,19.99c-0.08,0-0.17-0.02-0.25-0.07c-0.24-0.14-0.32-0.44-0.18-0.68l4.35-7.54c0.14-0.24,0.44-0.32,0.68-0.18
			c0.24,0.14,0.32,0.44,0.18,0.68l-4.35,7.54C35.22,19.9,35.06,19.99,34.88,19.99z"/>
	</g>
</g>
</svg>
