<?xml version="1.0" encoding="utf-8"?>
<!-- Generator: Adobe Illustrator 25.3.1, SVG Export Plug-In . SVG Version: 6.00 Build 0)  -->
<svg version="1.1" xmlns="http://www.w3.org/2000/svg" xmlns:xlink="http://www.w3.org/1999/xlink" x="0px" y="0px"
	 viewBox="0 0 58.69 57.45" style="enable-background:new 0 0 58.69 57.45;" xml:space="preserve">
<style type="text/css">
	.st0{fill:#F9C02D;}
	.st1{fill:#F8B218;}
	.st2{fill:#FFFFFF;stroke:#000000;stroke-linecap:round;stroke-miterlimit:10;}
	.st3{fill:none;stroke:#000000;stroke-linecap:round;stroke-miterlimit:10;}
	.st4{fill:none;stroke:#000000;stroke-miterlimit:10;}
	.st5{fill:#FFFFFF;}
	.st6{fill:#020202;}
	.st7{fill:none;stroke:#000000;stroke-width:2;stroke-linecap:round;stroke-miterlimit:10;}
	.st8{fill:none;stroke:#000000;stroke-width:2;stroke-linecap:round;stroke-linejoin:round;stroke-miterlimit:10;}
</style>
<g id="Layer_2">
</g>
<g id="Layer_1">
</g>
<g id="Layer_3">
	<g>
		<g>
			<path class="st1" d="M31.97,26.26c0-4.67,2.39-8.77,6.01-11.16c-1.51-0.59-3.15-0.93-4.87-0.93c-7.39,0-13.38,5.99-13.38,13.38
				c0,7.39,5.99,13.38,13.38,13.38c2.72,0,5.25-0.82,7.37-2.22C35.5,36.77,31.97,31.93,31.97,26.26z"/>
		</g>
	</g>
	<g>
		<g>
			<path d="M34.92,41.43c-7.65,0-13.88-6.23-13.88-13.88s6.23-13.88,13.88-13.88c1.72,0,3.42,0.32,5.05,0.96l0.9,0.35l-0.8,0.53
				c-3.62,2.4-5.79,6.42-5.79,10.75c0,5.33,3.22,10.04,8.19,11.99l0.9,0.35l-0.8,0.53C40.29,40.63,37.65,41.43,34.92,41.43z
				 M34.92,14.67c-7.1,0-12.88,5.78-12.88,12.88s5.78,12.88,12.88,12.88c2.21,0,4.37-0.56,6.28-1.64
				c-4.85-2.29-7.93-7.11-7.93-12.53c0-4.34,2.02-8.39,5.44-11.01C37.48,14.87,36.2,14.67,34.92,14.67z"/>
		</g>
	</g>
</g>
</svg>
