<?xml version="1.0" encoding="utf-8"?>
<!-- Generator: Adobe Illustrator 25.3.1, SVG Export Plug-In . SVG Version: 6.00 Build 0)  -->
<svg version="1.1" xmlns="http://www.w3.org/2000/svg" xmlns:xlink="http://www.w3.org/1999/xlink" x="0px" y="0px"
	 viewBox="0 0 58.69 57.45" style="enable-background:new 0 0 58.69 57.45;" xml:space="preserve">
<style type="text/css">
	.st0{fill:#F9C02D;}
	.st1{fill:#F8B218;}
	.st2{fill:#FFFFFF;stroke:#000000;stroke-linecap:round;stroke-miterlimit:10;}
	.st3{fill:none;stroke:#000000;stroke-linecap:round;stroke-miterlimit:10;}
	.st4{fill:none;stroke:#000000;stroke-miterlimit:10;}
	.st5{fill:#FFFFFF;}
	.st6{fill:#020202;}
	.st7{fill:none;stroke:#000000;stroke-width:2;stroke-linecap:round;stroke-miterlimit:10;}
	.st8{fill:none;stroke:#000000;stroke-width:2;stroke-linecap:round;stroke-linejoin:round;stroke-miterlimit:10;}
</style>
<g id="Layer_2">
</g>
<g id="Layer_1">
</g>
<g id="Layer_3">
	<g>
		<g>
			<path d="M34.92,43.23c-7.65,0-13.88-6.23-13.88-13.88s6.23-13.88,13.88-13.88c1.72,0,3.42,0.32,5.05,0.96l0.9,0.35l-0.8,0.53
				c-3.62,2.4-5.79,6.42-5.79,10.75c0,5.33,3.22,10.04,8.19,11.99l0.9,0.35l-0.8,0.53C40.29,42.44,37.64,43.23,34.92,43.23z
				 M34.92,16.47c-7.1,0-12.88,5.78-12.88,12.88s5.78,12.88,12.88,12.88c2.21,0,4.36-0.56,6.28-1.64
				c-4.85-2.29-7.93-7.11-7.93-12.53c0-4.34,2.02-8.39,5.44-11.01C37.48,16.67,36.2,16.47,34.92,16.47z"/>
		</g>
	</g>
</g>
</svg>
