<?xml version="1.0" encoding="utf-8"?>
<!-- Generator: Adobe Illustrator 25.3.1, SVG Export Plug-In . SVG Version: 6.00 Build 0)  -->
<svg version="1.1" xmlns="http://www.w3.org/2000/svg" xmlns:xlink="http://www.w3.org/1999/xlink" x="0px" y="0px"
	 viewBox="0 0 58.69 57.45" style="enable-background:new 0 0 58.69 57.45;" xml:space="preserve">
<style type="text/css">
	.st0{fill:#F9C02D;}
	.st1{fill:#F8B218;}
	.st2{fill:#FFFFFF;stroke:#000000;stroke-linecap:round;stroke-miterlimit:10;}
	.st3{fill:none;stroke:#000000;stroke-linecap:round;stroke-miterlimit:10;}
	.st4{fill:none;stroke:#000000;stroke-miterlimit:10;}
	.st5{fill:#FFFFFF;}
	.st6{fill:#020202;}
	.st7{fill:none;stroke:#000000;stroke-width:2;stroke-linecap:round;stroke-miterlimit:10;}
	.st8{fill:none;stroke:#000000;stroke-width:2;stroke-linecap:round;stroke-linejoin:round;stroke-miterlimit:10;}
</style>
<g id="Layer_2">
</g>
<g id="Layer_1">
</g>
<g id="Layer_3">
	<g>
		<path class="st0" d="M41.86,37.56H17.35c-1.11,0-2.01-0.9-2.01-2.01v-16c0-1.11,0.9-2.01,2.01-2.01h24.52
			c1.11,0,2.01,0.9,2.01,2.01v16C43.88,36.66,42.98,37.56,41.86,37.56z"/>
	</g>
	<g>
		<path d="M40.96,37.71H16.45c-1.39,0-2.51-1.13-2.51-2.51v-16c0-1.39,1.13-2.51,2.51-2.51h24.52c1.39,0,2.51,1.13,2.51,2.51v16
			C43.48,36.58,42.35,37.71,40.96,37.71z M16.45,17.68c-0.83,0-1.51,0.68-1.51,1.51v16c0,0.83,0.68,1.51,1.51,1.51h24.52
			c0.83,0,1.51-0.68,1.51-1.51v-16c0-0.83-0.68-1.51-1.51-1.51H16.45z"/>
	</g>
	<g>
		<polygon points="28.71,29.82 14.82,18.15 15.46,17.38 28.7,28.51 41.94,17.26 42.59,18.02 		"/>
	</g>
	<g>
		<rect x="13.54" y="31.49" transform="matrix(0.7543 -0.6566 0.6566 0.7543 -15.88 21.5528)" width="14.62" height="1"/>
	</g>
	<g>
		<rect x="36.44" y="24.68" transform="matrix(0.6559 -0.7548 0.7548 0.6559 -11.4365 38.8923)" width="1" height="14.62"/>
	</g>
</g>
</svg>
