<?xml version="1.0" encoding="utf-8"?>
<!-- Generator: Adobe Illustrator 25.3.1, SVG Export Plug-In . SVG Version: 6.00 Build 0)  -->
<svg version="1.1" xmlns="http://www.w3.org/2000/svg" xmlns:xlink="http://www.w3.org/1999/xlink" x="0px" y="0px"
	 viewBox="0 0 58.69 57.45" style="enable-background:new 0 0 58.69 57.45;" xml:space="preserve">
<style type="text/css">
	.st0{fill:#F9C02D;}
	.st1{fill:#F8B218;}
	.st2{fill:#FFFFFF;stroke:#000000;stroke-linecap:round;stroke-miterlimit:10;}
	.st3{fill:none;stroke:#000000;stroke-linecap:round;stroke-miterlimit:10;}
	.st4{fill:none;stroke:#000000;stroke-miterlimit:10;}
	.st5{fill:#FFFFFF;}
	.st6{fill:#020202;}
	.st7{fill:none;stroke:#000000;stroke-width:2;stroke-linecap:round;stroke-miterlimit:10;}
	.st8{fill:none;stroke:#000000;stroke-width:2;stroke-linecap:round;stroke-linejoin:round;stroke-miterlimit:10;}
</style>
<g id="Layer_2">
</g>
<g id="Layer_1">
</g>
<g id="Layer_3">
	<g>
		<path d="M38.58,19.93H20.11c-0.28,0-0.5-0.22-0.5-0.5s0.22-0.5,0.5-0.5h18.47c0.28,0,0.5,0.22,0.5,0.5S38.85,19.93,38.58,19.93z"
			/>
	</g>
	<g>
		<path d="M38.58,27.51H20.11c-0.28,0-0.5-0.22-0.5-0.5s0.22-0.5,0.5-0.5h18.47c0.28,0,0.5,0.22,0.5,0.5S38.85,27.51,38.58,27.51z"
			/>
	</g>
	<g>
		<path d="M38.58,35.09H20.11c-0.28,0-0.5-0.22-0.5-0.5s0.22-0.5,0.5-0.5h18.47c0.28,0,0.5,0.22,0.5,0.5S38.85,35.09,38.58,35.09z"
			/>
	</g>
</g>
</svg>
