<?xml version="1.0" encoding="utf-8"?>
<!-- Generator: Adobe Illustrator 25.3.1, SVG Export Plug-In . SVG Version: 6.00 Build 0)  -->
<svg version="1.1" xmlns="http://www.w3.org/2000/svg" xmlns:xlink="http://www.w3.org/1999/xlink" x="0px" y="0px"
	 viewBox="0 0 58.69 57.45" style="enable-background:new 0 0 58.69 57.45;" xml:space="preserve">
<style type="text/css">
	.st0{fill:#F9C02D;}
	.st1{fill:#F8B218;}
	.st2{fill:#FFFFFF;stroke:#000000;stroke-linecap:round;stroke-miterlimit:10;}
	.st3{fill:none;stroke:#000000;stroke-linecap:round;stroke-miterlimit:10;}
	.st4{fill:none;stroke:#000000;stroke-miterlimit:10;}
	.st5{fill:#FFFFFF;}
	.st6{fill:#020202;}
	.st7{fill:none;stroke:#000000;stroke-width:2;stroke-linecap:round;stroke-miterlimit:10;}
	.st8{fill:none;stroke:#000000;stroke-width:2;stroke-linecap:round;stroke-linejoin:round;stroke-miterlimit:10;}
</style>
<g id="Layer_2">
</g>
<g id="Layer_1">
</g>
<g id="Layer_3">
	<g>
		<path d="M29.34,42.93c-7.89,0-14.31-6.42-14.31-14.31s6.42-14.31,14.31-14.31c7.89,0,14.31,6.42,14.31,14.31
			S37.24,42.93,29.34,42.93z M29.34,15.31c-7.34,0-13.31,5.97-13.31,13.31c0,7.34,5.97,13.31,13.31,13.31s13.31-5.97,13.31-13.31
			C42.66,21.28,36.68,15.31,29.34,15.31z"/>
	</g>
	<g>
		<g>
			<path d="M26.39,15.71c0.87,0.36,0.56,2.29,0.47,2.97c-0.11,0.86,0.12,1.54,0.97,1.91c0.95,0.4,2.03,0.04,2.96,0.48
				c0.79,0.38,2.11,1.47,1.94,2.43c-0.15,0.91-0.68,1.67-0.07,2.54c0.49,0.69,1.35,0.93,2.14,1.14c0.41,0.11,0.89,0.21,1.22,0.51
				c0.43,0.4,0.4,1.02,0.45,1.55c0.08,0.8,0.34,1.64,1.15,1.98c0.54,0.23,1.19,0.17,1.76,0.14c0.57-0.02,1.14-0.05,1.69-0.14
				c0.48-0.08,0.95-0.23,1.34-0.52c0.42-0.31,0.6-0.79,0.97-1.14c0.48-0.43-0.23-1.13-0.71-0.7c-0.31,0.28-0.45,0.67-0.74,0.95
				c-0.35,0.34-0.89,0.43-1.35,0.48c-0.51,0.06-1.04,0.07-1.55,0.09c-0.61,0.01-1.2,0.06-1.45-0.6c-0.31-0.83-0.05-1.74-0.61-2.51
				c-0.49-0.67-1.31-0.9-2.08-1.1c-0.39-0.1-0.8-0.2-1.14-0.44c-0.5-0.36-0.44-0.8-0.27-1.33c0.3-0.92,0.37-1.65-0.25-2.47
				c-0.54-0.71-1.22-1.39-2.04-1.77c-0.89-0.41-1.78-0.2-2.7-0.41c-0.25-0.06-0.57-0.17-0.69-0.42c-0.09-0.21,0.03-0.57,0.05-0.8
				c0.07-0.59,0.09-1.19,0.03-1.78c-0.08-0.87-0.41-1.65-1.26-2C26.07,14.51,25.81,15.47,26.39,15.71L26.39,15.71z"/>
		</g>
	</g>
	<g>
		<g>
			<path d="M15.87,28.6c0.46-0.35,0.94-0.65,1.46-0.89c0.51-0.24,1.37-0.64,1.93-0.4c0.58,0.25,0.26,0.9,0.14,1.35
				c-0.12,0.46-0.2,0.93-0.04,1.38c0.28,0.82,1.17,1.3,2.01,1.32c1.09,0.03,2.05-0.63,2.97-1.13c0.26-0.14,0.53-0.28,0.8-0.42
				c0.29-0.15,0.54-0.35,0.74-0.01c0.31,0.51,0.17,1.31-0.02,1.83c-0.28,0.8-0.96,1.75-0.12,2.47c0.36,0.31,0.94,0.27,1.27,0.6
				c0.6,0.6-0.52,1.19-0.81,1.63c-0.52,0.78,0.39,1.52,1.04,1.81c1.12,0.48,2.47,0.51,3.66,0.71c0.64,0.11,1.29,0.24,1.74,0.74
				c0.48,0.53,0.84,1.2,1.24,1.79c0.36,0.53,1.23,0.03,0.86-0.5c-0.65-0.96-1.24-2.17-2.35-2.66c-1.1-0.48-2.43-0.51-3.6-0.7
				c-0.48-0.08-1.01-0.15-1.42-0.42c-0.07-0.04-0.36-0.24-0.34-0.33c-0.03,0.16,0.48-0.31,0.24-0.12c0.24-0.19,0.48-0.45,0.65-0.71
				c0.58-0.91,0.18-1.9-0.78-2.3c-0.27-0.12-0.64-0.12-0.75-0.41c-0.1-0.28,0.12-0.57,0.24-0.82c0.24-0.53,0.41-1.11,0.41-1.7
				c0.01-0.79-0.32-2.19-1.35-2.15c-0.57,0.02-1.18,0.47-1.66,0.73c-0.59,0.32-1.17,0.71-1.81,0.94c-0.5,0.18-1.09,0.26-1.56-0.06
				c-0.59-0.4-0.35-1-0.19-1.57c0.3-1.1-0.07-2.21-1.35-2.32c-1.3-0.12-2.76,0.73-3.76,1.48C14.86,28.12,15.35,28.99,15.87,28.6
				L15.87,28.6z"/>
		</g>
	</g>
	<g>
		<g>
			<path d="M37.26,39.25c-1.04-0.79-2.05-1.62-3-2.51c-0.41-0.38-0.7-0.79-0.53-1.37c0.15-0.54,0.58-0.91,1.06-1.18
				c1.06-0.59,2.39-0.86,3.58-1.02c1.29-0.16,2.6-0.14,3.88,0.06c0.63,0.1,0.9-0.86,0.27-0.96c-1.59-0.25-3.19-0.26-4.78-0.01
				c-1.36,0.22-2.94,0.57-4.03,1.46c-1.01,0.82-1.4,2.26-0.53,3.33c0.46,0.57,1.08,1.03,1.63,1.5c0.64,0.54,1.29,1.06,1.95,1.57
				C37.27,40.5,37.77,39.64,37.26,39.25L37.26,39.25z"/>
		</g>
	</g>
</g>
</svg>
