<?xml version="1.0" encoding="utf-8"?>
<!-- Generator: Adobe Illustrator 25.3.1, SVG Export Plug-In . SVG Version: 6.00 Build 0)  -->
<svg version="1.1" xmlns="http://www.w3.org/2000/svg" xmlns:xlink="http://www.w3.org/1999/xlink" x="0px" y="0px"
	 viewBox="0 0 59.45 58.2" style="enable-background:new 0 0 59.45 58.2;" xml:space="preserve">
<style type="text/css">
	.st0{fill:#F9C02D;}
	.st1{fill:#F8B218;}
	.st2{fill:#FFFFFF;stroke:#000000;stroke-linecap:round;stroke-miterlimit:10;}
	.st3{fill:none;stroke:#000000;stroke-linecap:round;stroke-miterlimit:10;}
	.st4{fill:none;stroke:#000000;stroke-miterlimit:10;}
	.st5{fill:#FFFFFF;}
	.st6{fill:#020202;}
	.st7{fill:none;stroke:#000000;stroke-width:2;stroke-linecap:round;stroke-miterlimit:10;}
	.st8{fill:none;stroke:#000000;stroke-width:2;stroke-linecap:round;stroke-linejoin:round;stroke-miterlimit:10;}
</style>
<g id="Layer_2">
</g>
<g id="Layer_1">
</g>
<g id="Layer_3">
	<g id="XMLID_1_">
		<g>
			<path class="st1" d="M43.83,29.44c0,0.11-0.01,0.21-0.01,0.31c-0.27,0.28-0.42,0.63-0.69,0.89c-0.35,0.33-0.89,0.43-1.35,0.48
				c-0.52,0.06-1.04,0.07-1.56,0.09c-0.61,0.01-1.2,0.06-1.45-0.6c-0.31-0.83-0.05-1.75-0.6-2.51c-0.5-0.67-1.31-0.9-2.09-1.1
				c-0.39-0.1-0.8-0.2-1.13-0.44c-0.5-0.36-0.44-0.8-0.27-1.33c0.31-0.92,0.37-1.65-0.24-2.47c-0.54-0.71-1.23-1.39-2.05-1.77
				c-0.89-0.41-1.77-0.2-2.7-0.41c-0.25-0.05-0.57-0.16-0.68-0.42c-0.1-0.21,0.03-0.57,0.05-0.8c0.07-0.59,0.09-1.19,0.04-1.78
				c-0.05-0.49-0.19-0.93-0.43-1.3c0.6-0.09,1.22-0.15,1.85-0.15C37.86,16.13,43.83,22.1,43.83,29.44z"/>
			<path class="st1" d="M39.54,34c1.15-0.15,2.32-0.14,3.47,0c-0.9,2.46-2.49,4.57-4.55,6.1c-0.01-0.01-0.01-0.02-0.02-0.03
				c-1.04-0.79-2.06-1.62-3.01-2.51c-0.41-0.38-0.69-0.78-0.53-1.37c0.16-0.54,0.58-0.91,1.06-1.18
				C37.02,34.42,38.35,34.15,39.54,34z"/>
			<path d="M28.47,37.45c-0.06,0.05-0.2,0.16-0.25,0.16c0.03,0.1,0.27,0.26,0.33,0.3c0.41,0.27,0.94,0.34,1.42,0.42
				c1.17,0.19,2.5,0.23,3.6,0.7c1.09,0.47,1.68,1.64,2.31,2.59c0.61-0.27,1.18-0.58,1.74-0.93c-0.56-0.43-1.11-0.87-1.64-1.32
				c-0.56-0.47-1.18-0.94-1.64-1.5c-0.86-1.07-0.47-2.51,0.54-3.33c1.09-0.89,2.68-1.24,4.03-1.46c1.47-0.23,2.94-0.23,4.41-0.03
				c0.15-0.51,0.26-1.04,0.34-1.57c-0.02,0.01-0.03,0.03-0.05,0.05c-0.39,0.28-0.86,0.43-1.34,0.51c-0.56,0.1-1.13,0.13-1.7,0.15
				c-0.57,0.02-1.22,0.08-1.76-0.15c-0.81-0.34-1.07-1.18-1.15-1.98c-0.06-0.53-0.02-1.15-0.45-1.55c-0.32-0.3-0.81-0.4-1.22-0.51
				c-0.78-0.2-1.64-0.44-2.13-1.14c-0.62-0.87-0.09-1.63,0.06-2.54c0.16-0.96-1.15-2.05-1.94-2.43c-0.94-0.45-2.02-0.08-2.96-0.48
				c-0.86-0.37-1.09-1.05-0.98-1.91c0.09-0.67,0.4-2.61-0.47-2.97c-0.03-0.01-0.04-0.03-0.07-0.04c-5.45,1.27-9.63,5.88-10.22,11.56
				c0.91-0.57,2.01-1.06,3.01-0.97c1.29,0.11,1.65,1.22,1.36,2.32c-0.16,0.57-0.4,1.17,0.19,1.57c0.47,0.32,1.06,0.24,1.56,0.06
				c0.64-0.23,1.22-0.62,1.81-0.94c0.48-0.26,1.09-0.71,1.66-0.73c1.03-0.04,1.36,1.36,1.35,2.15c-0.01,0.59-0.17,1.17-0.42,1.7
				c-0.11,0.25-0.33,0.54-0.24,0.82c0.11,0.29,0.48,0.3,0.75,0.41c0.96,0.41,1.36,1.4,0.78,2.31
				C28.93,36.99,28.69,37.25,28.47,37.45z M30.52,15.13c7.89,0,14.31,6.42,14.31,14.31c0,7.9-6.42,14.32-14.31,14.32
				s-14.31-6.42-14.31-14.32C16.21,21.55,22.63,15.13,30.52,15.13z M43.82,29.75c0-0.1,0.01-0.2,0.01-0.31
				c0-7.34-5.97-13.31-13.31-13.31c-0.63,0-1.25,0.06-1.85,0.15c0.24,0.37,0.38,0.81,0.43,1.3c0.05,0.59,0.03,1.19-0.04,1.78
				c-0.02,0.23-0.15,0.59-0.05,0.8c0.11,0.26,0.43,0.37,0.68,0.42c0.93,0.21,1.81,0,2.7,0.41c0.82,0.38,1.51,1.06,2.05,1.77
				c0.61,0.82,0.55,1.55,0.24,2.47c-0.17,0.53-0.23,0.97,0.27,1.33c0.33,0.24,0.74,0.34,1.13,0.44c0.78,0.2,1.59,0.43,2.09,1.1
				c0.55,0.76,0.29,1.68,0.6,2.51c0.25,0.66,0.84,0.61,1.45,0.6c0.52-0.02,1.04-0.03,1.56-0.09c0.46-0.05,1-0.15,1.35-0.48
				C43.4,30.38,43.55,30.03,43.82,29.75z M43.01,34c-1.15-0.14-2.32-0.15-3.47,0c-1.19,0.15-2.52,0.42-3.58,1.01
				c-0.48,0.27-0.9,0.64-1.06,1.18c-0.16,0.59,0.12,0.99,0.53,1.37c0.95,0.89,1.97,1.72,3.01,2.51c0.01,0.01,0.01,0.02,0.02,0.03
				C40.52,38.57,42.11,36.46,43.01,34z M34.93,41.99c-0.35-0.54-0.69-1.11-1.11-1.58c-0.45-0.51-1.11-0.63-1.74-0.74
				c-1.2-0.2-2.54-0.23-3.67-0.71c-0.65-0.28-1.56-1.03-1.04-1.81c0.3-0.44,1.41-1.03,0.81-1.63c-0.32-0.33-0.9-0.29-1.26-0.6
				c-0.85-0.71-0.16-1.67,0.12-2.47c0.18-0.52,0.32-1.32,0.01-1.82c-0.2-0.34-0.45-0.14-0.74,0.01c-0.27,0.14-0.53,0.28-0.8,0.42
				c-0.91,0.5-1.87,1.16-2.96,1.13c-0.84-0.02-1.73-0.5-2.01-1.32c-0.16-0.46-0.08-0.93,0.04-1.38c0.12-0.46,0.44-1.1-0.14-1.36
				c-0.56-0.24-1.42,0.17-1.93,0.4c-0.46,0.22-0.89,0.48-1.3,0.78c0,0.04,0,0.09,0,0.13c0,7.35,5.97,13.32,13.31,13.32
				C32.07,42.76,33.55,42.48,34.93,41.99z"/>
			<path class="st1" d="M33.82,40.41c0.42,0.47,0.76,1.04,1.11,1.58c-1.38,0.49-2.86,0.77-4.41,0.77c-7.34,0-13.31-5.97-13.31-13.32
				c0-0.04,0-0.09,0-0.13c0.41-0.3,0.84-0.56,1.3-0.78c0.51-0.23,1.37-0.64,1.93-0.4c0.58,0.26,0.26,0.9,0.14,1.36
				c-0.12,0.45-0.2,0.92-0.04,1.38c0.28,0.82,1.17,1.3,2.01,1.32c1.09,0.03,2.05-0.63,2.96-1.13c0.27-0.14,0.53-0.28,0.8-0.42
				c0.29-0.15,0.54-0.35,0.74-0.01c0.31,0.5,0.17,1.3-0.01,1.82c-0.28,0.8-0.97,1.76-0.12,2.47c0.36,0.31,0.94,0.27,1.26,0.6
				c0.6,0.6-0.51,1.19-0.81,1.63c-0.52,0.78,0.39,1.53,1.04,1.81c1.13,0.48,2.47,0.51,3.67,0.71C32.71,39.78,33.37,39.9,33.82,40.41
				z"/>
		</g>
	</g>
</g>
</svg>
