<svg xmlns="http://www.w3.org/2000/svg" width="103.788" height="72.88" viewBox="0 0 103.788 72.88">
  <g id="Group_180" data-name="Group 180" transform="translate(-3955.287 -5873.16)">
    <g id="Group_175" data-name="Group 175" transform="translate(3960.147 5876.117)">
      <rect id="Rectangle_48" data-name="Rectangle 48" width="98.929" height="69.416" rx="2.013" fill="#feb117"/>
    </g>
    <g id="Group_176" data-name="Group 176" transform="translate(3955.287 5873.16)">
      <path id="Path_60" data-name="Path 60" d="M700.946,379.312H615.973a8.722,8.722,0,0,1-8.711-8.714V315.139a8.718,8.718,0,0,1,8.711-8.707h84.974a8.718,8.718,0,0,1,8.711,8.707V370.6A8.722,8.722,0,0,1,700.946,379.312ZM615.973,309.9a5.248,5.248,0,0,0-5.244,5.241V370.6a5.252,5.252,0,0,0,5.244,5.248h84.974a5.252,5.252,0,0,0,5.244-5.248V315.139a5.248,5.248,0,0,0-5.244-5.241Z" transform="translate(-607.262 -306.432)" fill="#1a1818"/>
    </g>
    <g id="Group_177" data-name="Group 177" transform="translate(3958.36 5875.163)">
      <path id="Path_61" data-name="Path 61" d="M656.281,350.544l-48.133-40.457,2.231-2.654,45.888,38.575,45.9-39,2.244,2.64Z" transform="translate(-608.148 -307.01)" fill="#1a1818"/>
    </g>
    <g id="Group_178" data-name="Group 178" transform="translate(3959.023 5908.276)">
      <rect id="Rectangle_49" data-name="Rectangle 49" width="50.671" height="3.465" transform="translate(0 33.269) rotate(-41.038)" fill="#1a1818"/>
    </g>
    <g id="Group_179" data-name="Group 179" transform="translate(4014.783 5908.291)">
      <rect id="Rectangle_50" data-name="Rectangle 50" width="3.465" height="50.671" transform="matrix(0.656, -0.755, 0.755, 0.656, 0, 2.615)" fill="#1a1818"/>
    </g>
  </g>
</svg>
