<svg id="Group_173" data-name="Group 173" xmlns="http://www.w3.org/2000/svg" width="30.758" height="21.892" viewBox="0 0 30.758 21.892">
  <g id="Group_135" data-name="Group 135" transform="translate(0 0)">
    <path id="Path_106" data-name="Path 106" d="M635.4,405.483H609.879a2.619,2.619,0,0,1-2.617-2.616v-16.66a2.619,2.619,0,0,1,2.617-2.617H635.4a2.619,2.619,0,0,1,2.617,2.617v16.66A2.619,2.619,0,0,1,635.4,405.483Zm-25.525-20.851a1.577,1.577,0,0,0-1.575,1.575v16.66a1.577,1.577,0,0,0,1.575,1.574H635.4a1.576,1.576,0,0,0,1.575-1.574v-16.66a1.577,1.577,0,0,0-1.575-1.575Z" transform="translate(-607.262 -383.591)" fill="#1a1818"/>
  </g>
  <g id="Group_136" data-name="Group 136" transform="translate(0.923 0.603)">
    <path id="Path_107" data-name="Path 107" d="M622.607,397.247l-14.458-12.153.67-.8L622.6,395.885l13.786-11.715.674.793Z" transform="translate(-608.148 -384.17)" fill="#1a1818"/>
  </g>
  <g id="Group_137" data-name="Group 137" transform="translate(1.122 10.55)">
    <rect id="Rectangle_51" data-name="Rectangle 51" width="15.221" height="1.041" transform="translate(0 9.993) rotate(-41.038)" fill="#1a1818"/>
  </g>
  <g id="Group_138" data-name="Group 138" transform="translate(17.872 10.554)">
    <rect id="Rectangle_52" data-name="Rectangle 52" width="1.041" height="15.221" transform="matrix(0.656, -0.755, 0.755, 0.656, 0, 0.786)" fill="#1a1818"/>
  </g>
</svg>
